# xmcd
#
# Track frame offsets: 
#        150
#        18470
#        42872
#        62737
#        86248
#        115007
#        153801
#        195190
#        221946
#        256259
#        277823
#        296046
#
# Disc length: 4343 seconds
#
# Revision: 0
# Processed by: cddbd v1.5.1PL0 Copyright (c) Steve Scherf et al.
# Submitted via: ExactAudioCopy v0.95b1
#
DISCID=a410f50c
DTITLE=Eric Clapton - Zenith Toulouse 26-02-2001 (Disk 1)
DYEAR=2001
DGENRE=Blues
TTITLE0=Key To The Highway
TTITLE1=Reptile
TTITLE2=Tears In Heaven
TTITLE3=Bell Bottom Blues
TTITLE4=Change The World
TTITLE5=My Father's Eyes
TTITLE6=River Of Tears
TTITLE7=Goin' Down Slow
TTITLE8=She's Gone
TTITLE9=Got You On My Mind
TTITLE10=Travelin' Light
TTITLE11=Don't Let Me Be Lonely Tonight
EXTD=
EXTT0=
EXTT1=
EXTT2=
EXTT3=
EXTT4=
EXTT5=
EXTT6=
EXTT7=
EXTT8=
EXTT9=
EXTT10=
EXTT11=
PLAYORDER=
